<?xml version="1.0" encoding="utf-8"?>
<!-- Generator: Adobe Illustrator 24.0.0, SVG Export Plug-In . SVG Version: 6.00 Build 0)  -->
<svg version="1.1" id="Layer_1" xmlns="http://www.w3.org/2000/svg" xmlns:xlink="http://www.w3.org/1999/xlink" x="0px" y="0px"
	 viewBox="0 0 512 512" style="enable-background:new 0 0 512 512;" xml:space="preserve">
<style type="text/css">
	.st0{fill-rule:evenodd;clip-rule:evenodd;}
</style>
<g id="Icons_with_numbers">
	<g id="Group" transform="translate(-240.000000, -144.000000)">
		<path id="Oval_188" class="st0" d="M496,568.3c84.5,0,153-68.5,153-153c0-50.1-24-94.5-61.2-122.4v-71.2
			c72.4,34.4,122.4,108.1,122.4,193.6c0,118.3-95.9,214.2-214.2,214.2s-214.2-95.9-214.2-214.2c0-85.4,50-159.2,122.4-193.6v71.2
			C367,320.8,343,365.2,343,415.3C343,499.8,411.5,568.3,496,568.3z M496,415.3c-17,0-30.6-13.7-30.6-30.5V201
			c0-16.6,13.7-30.5,30.6-30.5c17,0,30.6,13.7,30.6,30.5v183.8C526.6,401.4,512.9,415.3,496,415.3z"/>
	</g>
</g>
</svg>
