<?xml version="1.0" encoding="utf-8"?>
<!-- Generator: Adobe Illustrator 24.0.0, SVG Export Plug-In . SVG Version: 6.00 Build 0)  -->
<svg version="1.1" id="Layer_1" xmlns="http://www.w3.org/2000/svg" xmlns:xlink="http://www.w3.org/1999/xlink" x="0px" y="0px"
	 viewBox="0 0 512 512" style="enable-background:new 0 0 512 512;" xml:space="preserve">
<style type="text/css">
	.st0{fill:#040000;}
</style>
<g>
	<path class="st0" d="M460.2,128.4h-79l-47.3-47.8c0,0-0.2-0.2-0.4-0.2l-0.2-0.2l0,0c-7-7-16.5-11.5-27.3-11.5h-98.3
		c-11.5,0-21.7,4.9-28.8,12.8v0.1l-46.2,46.8H51.8c-21.8,0-39.3,17.1-39.3,38.9v236.6c0,21.8,17.6,39.5,39.3,39.5h408.3
		c21.7,0,39.3-17.7,39.3-39.5V167.3C499.5,145.5,481.8,128.4,460.2,128.4z M256,384.2c-59.6,0-108.2-48.7-108.2-108.4
		c0-59.8,48.6-108.4,108.2-108.4c59.7,0,108.2,48.6,108.2,108.4C364.2,335.5,315.7,384.2,256,384.2z M452.8,191
		c-9,0-16.4-7.4-16.4-16.5s7.4-16.5,16.4-16.5c9,0,16.4,7.4,16.4,16.5S461.8,191,452.8,191z"/>
	<path class="st0" d="M256,193.8c-45.2,0-81.7,36.6-81.7,81.9c0,45.2,36.5,81.9,81.7,81.9c45.1,0,81.7-36.6,81.7-81.9
		S301.1,193.8,256,193.8z"/>
</g>
</svg>
