<?xml version="1.0" encoding="utf-8"?>
<!-- Generator: Adobe Illustrator 24.0.0, SVG Export Plug-In . SVG Version: 6.00 Build 0)  -->
<svg version="1.1" id="Layer_1" xmlns="http://www.w3.org/2000/svg" xmlns:xlink="http://www.w3.org/1999/xlink" x="0px" y="0px"
	 viewBox="0 0 512 512" style="enable-background:new 0 0 512 512;" xml:space="preserve">
<style type="text/css">
	.st0{fill:#F22F14;}
	.st1{fill:#FFFFFF;}
</style>
<circle class="st0" cx="256" cy="256" r="206.1"/>
<path class="st1" d="M270.1,304h-28.2c-10.7,0-19.4-8.7-19.4-19.4V133.4c0-10.7,8.7-19.4,19.4-19.4h28.2c10.7,0,19.4,8.7,19.4,19.4
	v151.1C289.5,295.3,280.8,304,270.1,304z"/>
<path class="st1" d="M270.1,399.9h-28.2c-10.7,0-19.4-8.7-19.4-19.4v-28.2c0-10.7,8.7-19.4,19.4-19.4h28.2
	c10.7,0,19.4,8.7,19.4,19.4v28.2C289.5,391.3,280.8,399.9,270.1,399.9z"/>
</svg>
