<?xml version="1.0" encoding="utf-8"?>
<!-- Generator: Adobe Illustrator 24.0.1, SVG Export Plug-In . SVG Version: 6.00 Build 0)  -->
<svg version="1.1" id="圖層_1" xmlns="http://www.w3.org/2000/svg" xmlns:xlink="http://www.w3.org/1999/xlink" x="0px" y="0px"
	 viewBox="0 0 28.4 28.4" style="enable-background:new 0 0 28.4 28.4;" xml:space="preserve">
<style type="text/css">
	.st0{fill:#515151;}
	.st1{fill:none;stroke:#000000;stroke-width:2;stroke-linecap:round;stroke-linejoin:round;stroke-miterlimit:10;}
</style>
<polygon class="st0" points="4.2,15.6 4.2,21.5 14.6,25.5 24.6,21.3 24.2,14.7 17,17.2 14.2,14.2 11.2,17.5 "/>
<polyline class="st1" points="24.2,15.6 24.2,21.5 14.2,25.5 4.2,21.5 4.2,15.6 "/>
<polygon class="st1" points="4.2,9.5 14.2,5.5 24.2,9.5 14.2,13.5 "/>
<polyline class="st1" points="14.2,5.5 11.2,2.5 1.2,6.5 4.2,9.5 "/>
<polyline class="st1" points="14.2,5.5 17.2,2.5 27.2,6.5 24.2,9.5 "/>
<polyline class="st1" points="4.2,9.5 1.2,13.5 11.2,17.5 14.2,13.5 "/>
<polyline class="st1" points="24.2,9.5 27.2,13.5 17.2,17.5 14.2,13.5 "/>
</svg>
