<?xml version="1.0" encoding="utf-8"?>
<!-- Generator: Adobe Illustrator 24.0.1, SVG Export Plug-In . SVG Version: 6.00 Build 0)  -->
<svg version="1.1" id="圖層_1" xmlns="http://www.w3.org/2000/svg" xmlns:xlink="http://www.w3.org/1999/xlink" x="0px" y="0px"
	 viewBox="0 0 28.4 28.4" style="enable-background:new 0 0 28.4 28.4;" xml:space="preserve">
<path d="M23.3,4.2c-0.5-0.2-1.2-0.1-1.6,0.3c-1.8,1.8-4.8,1.8-6.7,0c-3-3-7.8-3-10.8,0c-0.3,0.3-0.4,0.6-0.4,1v19
	c0,0.8,0.7,1.5,1.5,1.5s1.5-0.7,1.5-1.5v-6.6c1.9-1.5,4.6-1.3,6.3,0.4c3,3,7.8,3,10.8,0c0.3-0.3,0.4-0.6,0.4-1V5.6
	C24.2,5,23.8,4.5,23.3,4.2z"/>
</svg>
