<?xml version="1.0" encoding="utf-8"?>
<!-- Generator: Adobe Illustrator 23.1.1, SVG Export Plug-In . SVG Version: 6.00 Build 0)  -->
<svg version="1.1" id="圖層_1" xmlns="http://www.w3.org/2000/svg" xmlns:xlink="http://www.w3.org/1999/xlink" x="0px" y="0px"
	 viewBox="0 0 265 259" style="enable-background:new 0 0 265 259;" xml:space="preserve">
<style type="text/css">
	.st0{opacity:0.4;fill:url(#SVGID_1_);}
	.st1{fill:url(#SVGID_2_);}
	.st2{fill:url(#SVGID_3_);}
	.st3{fill:url(#SVGID_4_);}
	.st4{fill:url(#SVGID_5_);}
	.st5{fill:url(#SVGID_6_);}
	.st6{fill:url(#SVGID_7_);}
</style>
<g>
	<g>
		<linearGradient id="SVGID_1_" gradientUnits="userSpaceOnUse" x1="13.7125" y1="125.262" x2="260" y2="125.262">
			<stop  offset="0" style="stop-color:#ED1771;stop-opacity:0.6"/>
			<stop  offset="0.1224" style="stop-color:#E61777;stop-opacity:0.6245"/>
			<stop  offset="0.3058" style="stop-color:#D11887;stop-opacity:0.6612"/>
			<stop  offset="0.5276" style="stop-color:#B019A1;stop-opacity:0.7055"/>
			<stop  offset="0.7769" style="stop-color:#811AC5;stop-opacity:0.7554"/>
			<stop  offset="1" style="stop-color:#521CEA;stop-opacity:0.8"/>
		</linearGradient>
		<path class="st0" d="M126.2,245c-29.8,4.2-60.7-9.2-81.2-32.4c-20.5-23.2-30.9-55.2-31.2-86.8c-0.4-36.6,13.2-74.1,39.8-97.6
			C82,3.2,127.2-3.1,160.2,15.6c15.7,8.9,28.5,22.7,43.7,32.5c16.8,10.8,37.4,17.5,48.4,34.7c7.4,11.6,9.1,26.5,6.7,40.2
			c-2.4,13.7-8.5,26.5-15.8,38.1C218,201.6,172.7,238.5,126.2,245z"/>
		<linearGradient id="SVGID_2_" gradientUnits="userSpaceOnUse" x1="25.5469" y1="132.3485" x2="254.4699" y2="132.3485">
			<stop  offset="0" style="stop-color:#ED1771"/>
			<stop  offset="0.1224" style="stop-color:#E61777"/>
			<stop  offset="0.3058" style="stop-color:#D11887"/>
			<stop  offset="0.5276" style="stop-color:#B019A1"/>
			<stop  offset="0.7769" style="stop-color:#811AC5"/>
			<stop  offset="1" style="stop-color:#521CEA"/>
		</linearGradient>
		<path class="st1" d="M120.4,71.6c50.6,10.9,116.8,2.1,131.7,55.1c16.5,58.6-57.3,113.3-110.5,106.1c-40.5-5.5-78-37.6-96.4-73.1
			c-14.9-28.8-21.7-61.9-19.1-94.2c0.6-7.8,1.8-15.7,5.7-22.4c3.9-6.7,11.1-12,18.9-11.7C62,31.7,69.4,42.7,77.2,50.8
			C88.1,62,103.4,67.9,120.4,71.6z"/>
		<g>
			
				<image style="overflow:visible;opacity:0.15;" width="218" height="220" xlink:href="267C8FBD710BC3AF.png"  transform="matrix(1 0 0 1 2 19)">
			</image>
			<g>
				<linearGradient id="SVGID_3_" gradientUnits="userSpaceOnUse" x1="189.142" y1="64.9189" x2="-8.9496" y2="213.8602">
					<stop  offset="3.906250e-03" style="stop-color:#FF4994"/>
					<stop  offset="0.1102" style="stop-color:#F84998"/>
					<stop  offset="0.2696" style="stop-color:#E348A4"/>
					<stop  offset="0.4623" style="stop-color:#C247B7"/>
					<stop  offset="0.681" style="stop-color:#9345D1"/>
					<stop  offset="0.9187" style="stop-color:#5843F3"/>
					<stop  offset="1" style="stop-color:#4242FF"/>
				</linearGradient>
				<path class="st2" d="M135.7,86.5c-21.6-4.7-52-8.5-60.6-32.6c-6.3-17.8-10-43.3-35-27.1c-15.5,10-25.3,30.9-30.5,48
					c-14.4,47.4,5.8,99.7,43.7,129.9c37,29.5,95.4,44.2,135,11.1c14.3-11.9,25.1-29.8,27-48.5C219.6,123.7,172.9,94.4,135.7,86.5z"
					/>
			</g>
		</g>
		<g>
			
				<image style="overflow:visible;opacity:0.15;" width="150" height="94" xlink:href="267C8FBD710BC3AD.png"  transform="matrix(1 0 0 1 97 33)">
			</image>
			<g>
				
					<linearGradient id="SVGID_4_" gradientUnits="userSpaceOnUse" x1="331.4449" y1="-180.1497" x2="315.5343" y2="25.8522" gradientTransform="matrix(0.9541 -0.2993 0.2993 0.9541 -108.6653 264.3146)">
					<stop  offset="0" style="stop-color:#ED1771"/>
					<stop  offset="0.1382" style="stop-color:#EE1E73"/>
					<stop  offset="0.3452" style="stop-color:#F13378"/>
					<stop  offset="0.5955" style="stop-color:#F65481"/>
					<stop  offset="0.8772" style="stop-color:#FC838D"/>
					<stop  offset="0.9842" style="stop-color:#FF9692"/>
				</linearGradient>
				<path class="st3" d="M135.9,70.6c10.6,3.3,21.6,5.2,32,9c15.7,5.7,29.9,15.7,40.5,28.6c5.9,7,12.7,15.8,21.8,14.4
					c12.5-2,13.5-18.2,11.9-28c-2.3-14.5-12-25.9-25-32.4c-15.5-7.8-31.9-8-48.9-7.4c-6.4,0.2-12.8,0.9-19.1,0.1
					c-6.3-0.9-12.5-2.8-18.3-5.6c-7-3.5-13-8.4-19.7-12.3c-2.9-1.7-7.8-3.1-10.4-0.1c-3.1,3.7,0.5,9.8,2.8,12.9
					C110.9,60,124,67,135.9,70.6z"/>
			</g>
		</g>
		<g>
			
				<image style="overflow:visible;opacity:0.15;" width="42" height="37" xlink:href="267C8FBD710BC3B3.png"  transform="matrix(1 0 0 1 151 10)">
			</image>
			<g>
				<linearGradient id="SVGID_5_" gradientUnits="userSpaceOnUse" x1="158.6405" y1="46.7941" x2="187.6045" y2="2.9343">
					<stop  offset="0" style="stop-color:#ED1771"/>
					<stop  offset="0.1382" style="stop-color:#EE1E73"/>
					<stop  offset="0.3452" style="stop-color:#F13378"/>
					<stop  offset="0.5955" style="stop-color:#F65481"/>
					<stop  offset="0.8772" style="stop-color:#FC838D"/>
					<stop  offset="0.9842" style="stop-color:#FF9692"/>
				</linearGradient>
				<path class="st4" d="M186.7,21.6c-6.4-12.3-27.5-12.8-32.4,1.3c-5.2,15.2,14.2,23.5,25.8,18.1C189.2,36.8,190.2,28.3,186.7,21.6
					z"/>
			</g>
		</g>
		<linearGradient id="SVGID_6_" gradientUnits="userSpaceOnUse" x1="86.5997" y1="26.999" x2="98.5771" y2="42.8514">
			<stop  offset="3.906250e-03" style="stop-color:#FF4994"/>
			<stop  offset="0.1102" style="stop-color:#F84998"/>
			<stop  offset="0.2696" style="stop-color:#E348A4"/>
			<stop  offset="0.4623" style="stop-color:#C247B7"/>
			<stop  offset="0.681" style="stop-color:#9345D1"/>
			<stop  offset="0.9187" style="stop-color:#5843F3"/>
			<stop  offset="1" style="stop-color:#4242FF"/>
		</linearGradient>
		<path class="st5" d="M93.9,28.7c0.7-4.1-2.9-8.5-7.2-8.3c-3.6,0.2-6.8,3.5-6.8,7.1c0,3.5,3,6.6,6.5,6.9S93.3,32.1,93.9,28.7z"/>
		<linearGradient id="SVGID_7_" gradientUnits="userSpaceOnUse" x1="231.0195" y1="171.7847" x2="242.9968" y2="187.637">
			<stop  offset="3.906250e-03" style="stop-color:#FF4994"/>
			<stop  offset="0.1102" style="stop-color:#F84998"/>
			<stop  offset="0.2696" style="stop-color:#E348A4"/>
			<stop  offset="0.4623" style="stop-color:#C247B7"/>
			<stop  offset="0.681" style="stop-color:#9345D1"/>
			<stop  offset="0.9187" style="stop-color:#5843F3"/>
			<stop  offset="1" style="stop-color:#4242FF"/>
		</linearGradient>
		<path class="st6" d="M238.4,173.5c0.7-4.1-2.9-8.5-7.2-8.3c-3.6,0.2-6.8,3.5-6.8,7.1c0,3.5,3,6.6,6.5,6.9
			C234.3,179.6,237.8,176.9,238.4,173.5z"/>
	</g>
</g>
</svg>
