<?xml version="1.0" encoding="utf-8"?>
<!-- Generator: Adobe Illustrator 23.1.1, SVG Export Plug-In . SVG Version: 6.00 Build 0)  -->
<svg version="1.1" id="圖層_1" xmlns="http://www.w3.org/2000/svg" xmlns:xlink="http://www.w3.org/1999/xlink" x="0px" y="0px"
	 viewBox="0 0 265 259" style="enable-background:new 0 0 265 259;" xml:space="preserve">
<style type="text/css">
	.st0{opacity:0.4;fill:url(#SVGID_1_);}
	.st1{fill:url(#SVGID_2_);}
	.st2{fill:url(#SVGID_3_);}
	.st3{fill:url(#SVGID_4_);}
	.st4{fill:url(#SVGID_5_);}
	.st5{fill:url(#SVGID_6_);}
	.st6{fill:url(#SVGID_7_);}
	.st7{fill:url(#SVGID_8_);}
	.st8{fill:url(#SVGID_9_);}
</style>
<g>
	<g>
		<radialGradient id="SVGID_1_" cx="184.287" cy="32.8953" r="263.494" gradientUnits="userSpaceOnUse">
			<stop  offset="0" style="stop-color:#FD7F72;stop-opacity:0.2"/>
			<stop  offset="1" style="stop-color:#FD396E"/>
		</radialGradient>
		<path class="st0" d="M230.3,108.9c-6.1-10.7-15-19.4-24.5-27.1c-8.7-7.1-16.8-10.2-22.4-20.8c-3.8-7.1-6.6-14.9-11.5-21.3
			c-10.4-13.4-28.6-11.8-43.3-7.8c-39.1,10.6-73.5,37.8-92.9,73.4c-5,9.2-9.1,19.1-9.9,29.6c-0.7,10.5,2.3,21.5,9.8,28.8
			c9.4,9.1,23.5,10.8,34.8,17.4c11.4,6.7,19.3,17.9,29,27c9.7,9,23.3,16.2,35.8,11.8c10.5-3.7,16.6-14.3,24.5-22.1
			c12.5-12.4,29.9-18.2,45.4-26.5c15.5-8.4,30.6-21.9,31.4-39.5C236.9,123.7,234.2,115.9,230.3,108.9z"/>
		<g>
			
				<image style="overflow:visible;opacity:0.15;" width="201" height="172" xlink:href="A98B7CDFC91D18B9.png"  transform="matrix(1 0 0 1 34 20)">
			</image>
			<g>
				<linearGradient id="SVGID_2_" gradientUnits="userSpaceOnUse" x1="156.1878" y1="11.8377" x2="108.539" y2="178.954">
					<stop  offset="0" style="stop-color:#46218B"/>
					<stop  offset="0.9927" style="stop-color:#B90E72"/>
				</linearGradient>
				<path class="st1" d="M42.8,46.2C47.1,35,58.3,26.5,70.3,26.3c12.7-0.2,23.9,7.9,33.5,16.2s19.3,17.5,31.7,20.3
					c14.9,3.4,30.2-3.4,45.4-2.5c20.9,1.1,39.4,17.4,45.2,37.5c5.8,20.1-0.2,42.6-13.7,58.6c-13.4,16-33.5,25.7-54.2,28.6
					c-23.1,3.3-48.1-1.9-65.7-17.3c-9.7-8.4-16.6-20-19.6-32.5c-2.3-9.9-0.3-20.7-3.3-30.4c-3.1-10.3-13-14-19.6-21.6
					C41.4,73.3,38,58.7,42.8,46.2z"/>
			</g>
		</g>
		<g>
			
				<image style="overflow:visible;opacity:0.15;" width="186" height="160" xlink:href="A98B7CDFC91D18BB.png"  transform="matrix(1 0 0 1 26 48)">
			</image>
			<g>
				<linearGradient id="SVGID_3_" gradientUnits="userSpaceOnUse" x1="78.5651" y1="61.6986" x2="148.3116" y2="181.8562">
					<stop  offset="0" style="stop-color:#FDBC95"/>
					<stop  offset="1" style="stop-color:#FD396E"/>
				</linearGradient>
				<path class="st2" d="M53.5,64.6c-5.7,5.2-10.1,11.9-13,18.8c-4.1,9.8-5.9,20.4-7.1,30.9c-3.9,34.1,6.7,73.4,43.3,83.9
					c24.6,7,51.2-0.2,73.7-10.6c33-15.3,79.6-63,40.7-98.4c-20.9-19-54.7-11.9-79.4-22.2C100,62.2,89.1,53.2,75.9,54.3
					C67.3,55,59.7,58.9,53.5,64.6z"/>
			</g>
		</g>
		<g>
			
				<image style="overflow:visible;opacity:0.15;" width="63" height="60" xlink:href="A98B7CDFC91D18BE.png"  transform="matrix(1 0 0 1 159 150)">
			</image>
			<g>
				<linearGradient id="SVGID_4_" gradientUnits="userSpaceOnUse" x1="183.5807" y1="166.7504" x2="198.7817" y2="195.8857">
					<stop  offset="1.943110e-03" style="stop-color:#FD6578"/>
					<stop  offset="0.9981" style="stop-color:#790E91"/>
				</linearGradient>
				<path class="st3" d="M172.4,184.5c-3.6,3.3-7.6,7.6-6.4,12.4c0.8,3.4,4.2,5.8,7.7,6.3c3.5,0.5,7-0.5,10.2-1.8
					c11.2-4.6,35.9-24.4,30.6-39.4C208.2,143.9,177.8,179.5,172.4,184.5z"/>
			</g>
		</g>
		<g>
			
				<image style="overflow:visible;opacity:0.15;" width="48" height="49" xlink:href="A98B7CDFC91D18BF.png"  transform="matrix(1 0 0 1 121 13)">
			</image>
			<g>
				<linearGradient id="SVGID_5_" gradientUnits="userSpaceOnUse" x1="140.7619" y1="27.9327" x2="158.7164" y2="71.438">
					<stop  offset="0" style="stop-color:#FDBC95"/>
					<stop  offset="1" style="stop-color:#FD396E"/>
				</linearGradient>
				<path class="st4" d="M134.5,51.8c5.9,4.3,14.5,4.6,20.6,0.6c15-9.6,5.7-30.5-9.8-33C127.6,16.5,121.4,42.3,134.5,51.8z"/>
			</g>
		</g>
		<g>
			
				<image style="overflow:visible;opacity:0.15;" width="27" height="27" xlink:href="A98B7CDFC91D18BA.png"  transform="matrix(1 0 0 1 165 34)">
			</image>
			<g>
				<linearGradient id="SVGID_6_" gradientUnits="userSpaceOnUse" x1="181.9142" y1="36.2995" x2="176.1057" y2="55.6613">
					<stop  offset="0" style="stop-color:#FD8E95"/>
					<stop  offset="1" style="stop-color:#FD396E"/>
				</linearGradient>
				<path class="st5" d="M184.7,44.5c-2.2-4.6-10.1-4.9-12.3,0c-1,2.3-0.7,5.2,0.9,7.2c2.1,2.6,6.1,3.2,8.9,1.5
					C185,51.4,186.1,47.5,184.7,44.5z"/>
			</g>
		</g>
		<g>
			
				<image style="overflow:visible;opacity:0.15;" width="29" height="29" xlink:href="A98B7CDFC91D18B5.png"  transform="matrix(1 0 0 1 95 197)">
			</image>
			<g>
				<linearGradient id="SVGID_7_" gradientUnits="userSpaceOnUse" x1="111.649" y1="204.7306" x2="105.8405" y2="225.4754">
					<stop  offset="1.943110e-03" style="stop-color:#FD6578"/>
					<stop  offset="1" style="stop-color:#C00E5E"/>
				</linearGradient>
				<path class="st6" d="M102.9,215.7c-2.1-3.5-0.9-8.6,2.6-10.7c3.5-2.2,8.5-1,10.8,2.4C121.9,216,108.2,224.6,102.9,215.7z"/>
			</g>
		</g>
		<linearGradient id="SVGID_8_" gradientUnits="userSpaceOnUse" x1="32.9953" y1="69.5837" x2="38.588" y2="80.769">
			<stop  offset="0" style="stop-color:#FDBC95"/>
			<stop  offset="1" style="stop-color:#FD396E"/>
		</linearGradient>
		<circle class="st7" cx="35.3" cy="74.2" r="2.8"/>
		<g>
			
				<image style="overflow:visible;opacity:0.15;" width="25" height="25" xlink:href="A98B7CDFC91D18B6.png"  transform="matrix(1 0 0 1 204 70)">
			</image>
			<g>
				<linearGradient id="SVGID_9_" gradientUnits="userSpaceOnUse" x1="201.0585" y1="61.2971" x2="240.4466" y2="116.6688">
					<stop  offset="0" style="stop-color:#FDBC95"/>
					<stop  offset="1" style="stop-color:#FD396E"/>
				</linearGradient>
				<path class="st8" d="M213.7,72.8c0.5-0.1,1-0.2,1.4-0.2c4-0.3,8.1,2.6,8.9,6.6c1,4.7-2.3,9.9-6.9,11c-4.7,1.1-9.9-2.2-10.8-6.9
					C205.4,78.6,209.3,73.9,213.7,72.8z"/>
			</g>
		</g>
	</g>
</g>
</svg>
