<?xml version="1.0" encoding="utf-8"?>
<!-- Generator: Adobe Illustrator 24.0.0, SVG Export Plug-In . SVG Version: 6.00 Build 0)  -->
<svg version="1.1" id="圖層_1" xmlns="http://www.w3.org/2000/svg" xmlns:xlink="http://www.w3.org/1999/xlink" x="0px" y="0px"
	 viewBox="0 0 64 64" style="enable-background:new 0 0 64 64;" xml:space="preserve">
<style type="text/css">
	.st0{fill:#3A3A3A;}
	.st1{opacity:0.1;fill:#3A3A3A;enable-background:new    ;}
	.st2{fill:#F3EEE4;}
	.st3{opacity:0.1;fill:#231F20;enable-background:new    ;}
	.st4{fill:#FFD640;}
	.st5{fill:#DBA92C;}
	.st6{fill:#FFEDB3;}
	.st7{fill:#FFFFFF;}
	.st8{fill:#E0E1E5;}
	.st9{fill:#EB5151;}
	.st10{fill:#CACBCE;}
	.st11{fill:#474E5E;}
</style>
<g>
	<path class="st0" d="M9.8,12.8h44.5v31.5H9.8V12.8z"/>
	<path class="st1" d="M12.8,16h39.6v26.3H12.8L12.8,16z"/>
	<path class="st0" d="M23.4,9.8h17.2v3H23.4L23.4,9.8z"/>
	<path class="st0" d="M19.8,48.8h24.4v3H19.8L19.8,48.8z"/>
	<path class="st0" d="M19.8,56.2h-4.3v-12h4.3L19.8,56.2z"/>
	<path class="st0" d="M48.6,56.2h-4.3v-12h4.3V56.2z"/>
	<path class="st0" d="M19.8,56.2h-4.3v-12h4.3L19.8,56.2z"/>
	<path class="st0" d="M12.2,15.4h39.6v26.3H12.2V15.4z"/>
	<path class="st0" d="M33.1,26.8l-0.7-0.6l6.3-6.6l4.3,4.6l5.6-5.8l0.6,0.6L43,25.4l-4.3-4.5L33.1,26.8z"/>
	<g>
		<ellipse class="st0" cx="32.8" cy="26.5" rx="1.4" ry="1.5"/>
		<ellipse class="st0" cx="38.6" cy="20.3" rx="1.4" ry="1.5"/>
		<ellipse class="st0" cx="43" cy="24.8" rx="1.4" ry="1.5"/>
		<ellipse class="st0" cx="49" cy="18.7" rx="1.4" ry="1.5"/>
	</g>
	<path class="st0" d="M16.2,30.6h13.4v1.7H16.2V30.6z"/>
	<path class="st0" d="M16.2,34.2h13.4v1.7H16.2V34.2z"/>
	<path class="st0" d="M16.2,37.7h13.4v1.7H16.2V37.7z"/>
	<path class="st0" d="M14.1,30.6h1.2v1.7h-1.2V30.6z"/>
	<path class="st0" d="M14.1,34.2h1.2v1.7h-1.2V34.2z"/>
	<path class="st0" d="M14.1,37.7h1.2v1.7h-1.2V37.7z"/>
</g>
<g>
	<path class="st2" d="M9.8,12.6h44.5v30.2H9.8V12.6z"/>
	<path class="st3" d="M12.9,15.7h39.6v25.2H12.8L12.9,15.7z"/>
	<path class="st4" d="M23.4,9.7h17.2v2.9H23.4L23.4,9.7z"/>
	<path class="st5" d="M19.8,47.1h24.4V50H19.8L19.8,47.1z"/>
	<path class="st6" d="M19.8,54.3h-4.3V42.8h4.3L19.8,54.3z"/>
	<path class="st4" d="M48.6,54.3h-4.3V42.8h4.3V54.3z"/>
	<path class="st4" d="M19.8,54.3h-4.3V42.8h4.3L19.8,54.3z"/>
	<path class="st7" d="M12.2,15.1h39.6v25.2H12.2V15.1z"/>
	<path class="st8" d="M33.1,26l-0.7-0.6l6.3-6.3l4.3,4.4l5.6-5.6l0.6,0.6L43,24.7l-4.3-4.3L33.1,26z"/>
	<g>
		<circle class="st9" cx="32.8" cy="25.7" r="1.4"/>
		<circle class="st9" cx="38.6" cy="19.8" r="1.4"/>
		<circle class="st9" cx="43" cy="24.1" r="1.4"/>
		<circle class="st9" cx="49" cy="18.2" r="1.4"/>
	</g>
	<path class="st10" d="M16.2,29.7h13.4v1.6H16.2V29.7z"/>
	<path class="st10" d="M16.2,33.1h13.4v1.6H16.2V33.1z"/>
	<path class="st10" d="M16.2,36.5h13.4v1.6H16.2V36.5z"/>
	<path class="st11" d="M14.1,29.7h1.2v1.6h-1.2V29.7z"/>
	<path class="st11" d="M14.1,33.1h1.2v1.6h-1.2V33.1z"/>
	<path class="st11" d="M14.1,36.5h1.2v1.6h-1.2V36.5z"/>
</g>
</svg>
