<?xml version="1.0" encoding="utf-8"?>
<!-- Generator: Adobe Illustrator 24.0.0, SVG Export Plug-In . SVG Version: 6.00 Build 0)  -->
<svg version="1.1" id="圖層_1" xmlns="http://www.w3.org/2000/svg" xmlns:xlink="http://www.w3.org/1999/xlink" x="0px" y="0px"
	 viewBox="0 0 64 64" style="enable-background:new 0 0 64 64;" xml:space="preserve">
<style type="text/css">
	.st0{opacity:0.2;}
	.st1{fill:#231F20;}
	.st2{fill:#FFFFFF;}
	.st3{fill:#4F5D73;}
	.st4{fill:#C75C5C;}
</style>
<g id="Layer_1">
	<g class="st0">
		<g>
			<path class="st1" d="M47.7,47.2c0,2.8-2.2,5-5,5h-25c-2.8,0-5-2.2-5-5v-25c0-2.8,2.2-5,5-5h25c2.8,0,5,2.2,5,5V47.2z"/>
		</g>
	</g>
	<g>
		<g>
			<path class="st2" d="M17.8,47.2c-1.4,0-2.5-1.1-2.5-2.5v-25c0-1.4,1.1-2.5,2.5-2.5h25c1.4,0,2.5,1.1,2.5,2.5v25
				c0,1.4-1.1,2.5-2.5,2.5H17.8z"/>
		</g>
		<g>
			<path class="st3" d="M42.7,19.7v25h-25v-25H42.7 M42.7,14.7h-25c-2.8,0-5,2.2-5,5v25c0,2.8,2.2,5,5,5h25c2.8,0,5-2.2,5-5v-25
				C47.7,17,45.5,14.7,42.7,14.7L42.7,14.7z"/>
		</g>
	</g>
	<g class="st0">
		<g>
			<path class="st1" d="M30.8,42.2c-0.8,0-1.5-0.4-2-1l-7.6-10c-0.8-1.1-0.6-2.7,0.5-3.5c1.1-0.8,2.7-0.6,3.5,0.5l5.2,6.8
				c2.9-5.2,9.2-14.7,19.1-21.2c1.2-0.7,2.7-0.4,3.5,0.7c0.7,1.2,0.4,2.7-0.7,3.5c-12.7,8.2-19,22.5-19.1,22.6
				c-0.4,0.8-1.1,1.4-2,1.5C31,42.2,30.9,42.2,30.8,42.2z"/>
		</g>
	</g>
	<g>
		<path class="st4" d="M30.8,39.7c-0.8,0-1.5-0.4-2-1l-7.6-10c-0.8-1.1-0.6-2.7,0.5-3.5c1.1-0.8,2.7-0.6,3.5,0.5l5.2,6.8
			c2.9-5.2,9.1-14.7,19.1-21.2c1.2-0.7,2.7-0.4,3.5,0.7c0.7,1.2,0.4,2.7-0.7,3.5c-12.7,8.2-19,22.5-19.1,22.6
			c-0.4,0.8-1.1,1.4-2,1.5C31,39.7,30.9,39.7,30.8,39.7z"/>
	</g>
</g>
<g id="Layer_2">
</g>
</svg>
